<?xml version="1.0" encoding="UTF-8"?>
<svg version="1.1" viewBox="0 0 2048 1969" width="1280" height="1280" xmlns="http://www.w3.org/2000/svg">
<path transform="translate(0)" d="m0 0h2048v1969h-2048z" fill="#FDFDFD"/>
<path transform="translate(568,732)" d="m0 0h384l11 1 10 4 8 8 5 10 1 5v387l-1 16-6 12-7 6-8 4-6 1-52 1h-342l-10-2-9-5-8-8-4-10-1-8v-393l2-9 6-9 7-6 9-4z" fill="#ED2428"/>
<path transform="translate(1039,732)" d="m0 0h385l11 1 12 6 7 8 4 10v402l-2 8-5 8-8 7-7 3-6 1-53 1h-342l-8-2-8-4-7-6-5-8-2-8v-401l3-9 9-10 8-5z" fill="#ED2428"/>
<path transform="translate(109,731)" d="m0 0h371l15 2 10 6 6 8 3 7 1 5v394l-2 12-5 9-7 6-8 4-6 1h-399l-11-4-10-9-4-8-1-5v-404l6-12 8-7 9-4z" fill="#ED2428"/>
<path transform="translate(1510,732)" d="m0 0h360l36 1 10 4 5 4 7 11 2 9v392l-2 13-5 9-8 7-7 3-7 1-55 1h-317l-28-1-12-6-7-7-4-8-1-4v-404l4-10 8-9 11-5z" fill="#ED2428"/>
<path transform="translate(1647,827)" d="m0 0h110l19 1 16 4 9 6 7 10 4 15 2 16 1 37v175l-48 1h-18l-1-1-1-13v-49l-87 1-1 61-1 1h-65l-1-1-1-31v-150l1-26 2-19 4-15 6-10 8-6 10-4 10-2z" fill="#FDFDFD"/>
<path transform="translate(1121,827)" d="m0 0h65l1 8v91l88-1v-81l1-17h67v264l-1 1h-65l-1-1-1-29v-69h-88v98l-34 1h-32l-1-1v-263z" fill="#FDFDFD"/>
<path transform="translate(177,826)" d="m0 0h66l1 1 1 185 3 7 8 4h62l9-3 5-8v-143l1-42 1-1h65l1 1v196l-2 28-4 16-4 8-4 5-9 5-9 3-17 2h-127l-18-3-9-4-8-6-6-10-4-15-2-17-1-36v-161z" fill="#FDFDFD"/>
<path transform="translate(749,823)" d="m0 0h15l23 2 18 4 16 6 14 8 12 11 7 8 8 15 4 13 1 10-4 1h-69l-2-1-6-12-9-6-10-3-15-1-11 2-8 4-4 6-1 3v9l5 8 8 7 11 5 24 7 37 10 20 8 16 9 12 11 7 10 5 13 2 11v14l-2 14-5 15-5 10-8 10-7 7-14 9-11 5-15 5-15 3-19 2h-28l-22-3-19-5-19-9-13-10-9-9-9-14-6-15-4-18 1-1h76l7 13 5 5 8 5 12 3h18l12-3 8-5 3-3 2-5v-10l-5-8-7-6-10-5-16-5-30-8-30-10-19-9-12-9-8-9-7-14-3-14v-20l3-14 5-12 9-13 8-8 14-9 15-7 19-5 14-2z" fill="#FDFDFD"/>
<path transform="translate(1669,894)" d="m0 0h68l5 3 5 6 1 4v52l-1 3h-87l-1-1v-58l3-5z" fill="#ED2428"/>
<path transform="translate(1977,742)" d="m0 0h8l10 3 8 6 6 10 1 4v11l-3 9-9 10-10 4h-14l-9-4-5-4-6-9-1-3v-15l4-9 7-8 8-4z" fill="#FDFDFD"/>
<path transform="translate(1977,742)" d="m0 0h8l10 3 8 6 6 10 1 4v11l-3 9-9 10-10 4h-14l-9-4-5-4-6-9-1-3v-15l4-9 7-8 8-4zm-1 5-8 3-5 4-5 9-1 10 3 10 7 8 9 4h9l9-3 6-5 5-10v-13l-4-8-8-7-5-2z" fill="#ED2428"/>
<path transform="translate(1972,755)" d="m0 0h16l5 4 1 7-2 6 2 10-1 5h-3l-3-13-12-1v14h-4l-1-3v-27z" fill="#ED2428"/>
<path transform="translate(1975,759)" d="m0 0h12l2 2v7l-2 1h-12z" fill="#FDFDFD"/>
</svg>
